<svg id="Layer_1" data-name="Layer 1" xmlns="http://www.w3.org/2000/svg" viewBox="0 0 369.4 369.4"><g id="Mark_w_shadow_wht_" data-name="Mark w/ shadow (wht)"><circle cx="184.7" cy="184.7" r="184.7" style="fill:#fff"/><path d="M170.74,237.14h0a60.36,60.36,0,0,1,0-85.4h0a23.72,23.72,0,0,0-33.6-33.5,107.67,107.67,0,0,0,0,152.4,23.72,23.72,0,0,0,33.6-33.5Z" transform="translate(-20.14 -10.24)" style="fill:#ffd75f"/><path d="M170.74,151.84h0a60.36,60.36,0,0,1,85.4,0h0a23.72,23.72,0,0,0,33.6-33.5,107.92,107.92,0,0,0-152.6,0,23.72,23.72,0,0,0,33.6,33.5Z" transform="translate(-20.14 -10.24)" style="fill:#4fb5e1"/><path d="M256.24,237.14h0a60.36,60.36,0,0,1-85.4,0h0a23.72,23.72,0,0,0-33.6,33.5,107.92,107.92,0,0,0,152.6,0,23.6,23.6,0,0,0,0-33.5,23.9,23.9,0,0,0-33.6,0Z" transform="translate(-20.14 -10.24)" style="fill:#f05751"/><path d="M170.74,151.84a23.72,23.72,0,1,1,0-33.5A23.72,23.72,0,0,1,170.74,151.84Z" transform="translate(-20.14 -10.24)" style="fill:#0681b6"/><path d="M170.74,270.74a23.72,23.72,0,1,1,0-33.5A23.72,23.72,0,0,1,170.74,270.74Z" transform="translate(-20.14 -10.24)" style="fill:#cd4739"/></g></svg>