<svg xmlns="http://www.w3.org/2000/svg" width="190" height="190" viewBox="0 0 190 190">
  <g id="uni" transform="translate(-593 -1290)">
    <circle id="Эллипс_1" data-name="Эллипс 1" cx="95" cy="95" r="95" transform="translate(593 1290)" fill="#fabea7"/>
    <path id="university-solid" d="M106,49.411v2.9a1.476,1.476,0,0,1-1.5,1.451H100v2.176a2.214,2.214,0,0,1-2.25,2.176H24.25A2.214,2.214,0,0,1,22,55.941V53.764H17.5A1.476,1.476,0,0,1,16,52.313v-2.9a1.451,1.451,0,0,1,.926-1.341l43.5-15.961a1.546,1.546,0,0,1,1.147,0l43.5,15.961A1.451,1.451,0,0,1,106,49.411Zm-4.5,55.137h-81A4.428,4.428,0,0,0,16,108.9v2.9a1.476,1.476,0,0,0,1.5,1.451h87A1.476,1.476,0,0,0,106,111.8v-2.9A4.428,4.428,0,0,0,101.5,104.549ZM31,61.019V95.843H24.25A2.214,2.214,0,0,0,22,98.019v3.627h78V98.019a2.214,2.214,0,0,0-2.25-2.176H91V61.019H79V95.843H67V61.019H55V95.843H43V61.019Z" transform="translate(627.441 1312.094)" fill="#393939"/>
  </g>
</svg>
