<svg xmlns="http://www.w3.org/2000/svg" width="190" height="190" viewBox="0 0 190 190">
  <g id="exp-work" transform="translate(-1403 -1872)">
    <circle id="Эллипс_2" data-name="Эллипс 2" cx="95" cy="95" r="95" transform="translate(1403 1872)" fill="#767c77"/>
    <path id="briefcase-solid" d="M53.445,83.046a2.679,2.679,0,0,1-2.672,2.687H34.739a2.679,2.679,0,0,1-2.672-2.687v-8.06H0v24.18a8.242,8.242,0,0,0,8.017,8.06H77.495a8.242,8.242,0,0,0,8.017-8.06V74.986H53.445ZM77.495,48.12H64.134V40.06A8.242,8.242,0,0,0,56.117,32H29.395a8.242,8.242,0,0,0-8.017,8.06v8.06H8.017A8.242,8.242,0,0,0,0,56.18V69.613H85.511V56.18A8.242,8.242,0,0,0,77.495,48.12Zm-24.05,0H32.067V42.747H53.445Z" transform="translate(1455.78 1892.968)" fill="#fff"/>
  </g>
</svg>
